<svg width="178" height="129" viewBox="0 0 178 129" fill="none" xmlns="http://www.w3.org/2000/svg">
<g clip-path="url(#clip0)">
<path d="M49.7155 57.6656L46.9303 73.6831L31.7511 78.9758L9.05182 63.2369L13.7866 56.2728L33.2829 65.0476L49.7155 57.6656Z" stroke="white" stroke-width="0.343719" stroke-miterlimit="10" stroke-dasharray="0.86 0.86"/>
<path d="M58.3498 50.3352L43.1705 56.6028L33.5616 44.9032L39.2713 18.4396H46.9305V41.4211L58.3498 50.3352Z" stroke="white" stroke-width="0.343719" stroke-miterlimit="10" stroke-dasharray="0.86 0.86"/>
<path d="M63.2237 10.6401C62.9451 10.3615 62.5274 10.2222 62.2488 10.3615L58.4888 11.4758L54.4503 8.27229L56.1214 3.39743L59.8814 2.28317C60.2992 2.14389 60.5777 1.86533 60.5777 1.44748C60.5777 1.02963 60.4385 0.751071 60.0207 0.472508C58.3496 -0.223902 56.2607 -0.502465 54.3111 0.054662C51.2474 0.890353 49.2977 3.39743 48.7407 6.32234L34.1185 10.7794C32.3081 11.3365 31.194 13.2864 31.7511 15.0971C32.0296 15.9328 32.5866 16.7685 33.4222 17.1863C34.2577 17.6042 35.2326 17.7435 36.0681 17.4649L50.8296 13.1472C52.7792 15.2364 55.8429 16.2114 58.7674 15.3757C60.717 14.8185 62.2488 13.565 63.2237 11.8936C63.5022 11.4758 63.5022 11.0579 63.2237 10.6401ZM36.3466 15.2364C35.5111 15.5149 34.8148 14.9578 34.5363 14.2614C34.2577 13.4257 34.8148 12.7293 35.5111 12.4507C36.3466 12.1722 37.0429 12.7293 37.3214 13.4257C37.6 14.1221 37.1822 14.9578 36.3466 15.2364Z" fill="#C4C4C4"/>
<path d="M16.4327 37.7482C16.0149 37.7482 15.7364 38.0267 15.5971 38.4446L14.4831 42.2052L9.60899 43.7373L6.54528 39.6981L7.5201 35.7982C7.65936 35.3804 7.5201 34.9625 7.24158 34.8232C6.96306 34.5447 6.54528 34.5447 6.12751 34.684C4.45639 35.6589 3.20306 37.191 2.64602 39.141C1.67121 42.0659 2.64602 45.2694 4.73491 47.2193L0.139359 61.9832C-0.417678 63.7939 0.557136 65.7438 2.36751 66.3009C3.20306 66.5795 4.17788 66.4402 5.01343 66.0224C5.84899 65.6045 6.40602 64.9081 6.68454 63.9331L11.2801 49.1693C14.0653 48.7514 16.5719 46.6622 17.5468 43.7373C18.1038 41.7873 17.9645 39.8374 17.129 38.0267C17.129 37.8874 16.8505 37.7482 16.4327 37.7482ZM5.15269 62.5403C4.87417 63.376 4.03862 63.7939 3.34232 63.5153C2.50677 63.2367 2.08899 62.401 2.36751 61.7046C2.64602 60.8689 3.48158 60.4511 4.17788 60.7297C5.01343 61.0082 5.43121 61.8439 5.15269 62.5403Z" fill="#C4C4C4"/>
<path d="M88.5689 8.91702L100.963 12.6776L104.862 23.4023L104.166 34.6842L94 45.8267V47.9159L122.966 56.2729L127.701 81.6221L134.664 95.6896L139.677 117.975L132.018 120.76L118.231 95.9682L112.8 78.2794L111.547 117.975L88.5689 122.153H87.1763L64.3378 117.975L63.0844 78.2794L57.6533 95.9682L43.8667 120.76L36.2074 117.975L41.0815 95.6896L48.1837 81.6221L52.9185 56.2729L81.8844 47.9159V45.8267L71.7185 34.6842L70.8829 23.4023L74.7822 12.6776L87.3155 8.91702H88.5689Z" fill="#7DDDC7"/>
<path d="M126.03 57.6656L128.954 73.6831L144.133 78.9758L166.833 63.2369L162.098 56.2728L142.462 65.0476L126.03 57.6656Z" stroke="white" stroke-width="0.343719" stroke-miterlimit="10" stroke-dasharray="0.86 0.86"/>
<path d="M117.396 50.3352L132.575 56.6028L142.323 44.9032L136.474 18.4396H128.954V41.4211L117.396 50.3352Z" stroke="white" stroke-width="0.343719" stroke-miterlimit="10" stroke-dasharray="0.86 0.86"/>
<path d="M113.914 11.7541C114.889 13.4255 116.421 14.679 118.37 15.2361C121.295 16.0718 124.358 15.0969 126.308 13.0076L141.07 17.3254C141.905 17.6039 142.88 17.4646 143.716 17.0468C144.551 16.629 145.108 15.7933 145.387 14.9576C145.944 13.1469 144.83 11.197 143.019 10.6398L128.397 6.3221C127.979 3.39718 125.89 0.890106 122.827 0.054415C120.877 -0.502712 118.927 -0.363431 117.117 0.47226C116.838 0.611542 116.56 1.02939 116.56 1.44723C116.56 1.86508 116.838 2.14364 117.256 2.28292L121.156 3.39718L122.827 8.27204L118.788 11.4755L115.028 10.3613C114.61 10.222 114.193 10.3613 114.053 10.6398C113.775 11.0577 113.775 11.4755 113.914 11.7541ZM139.816 13.4255C140.095 12.5898 140.93 12.1719 141.627 12.4505C142.462 12.7291 142.88 13.5648 142.601 14.2612C142.323 15.0969 141.487 15.5147 140.791 15.2361C140.095 14.9576 139.677 14.1219 139.816 13.4255Z" fill="#C4C4C4"/>
<path d="M159.87 38.3051C159.034 39.9765 158.895 42.0657 159.452 44.0157C160.427 46.9406 162.794 48.8905 165.719 49.4476L170.314 64.2115C170.593 65.0472 171.15 65.8829 171.985 66.3008C172.821 66.7186 173.796 66.8579 174.631 66.5793C176.442 66.0222 177.416 64.0722 176.859 62.2616L172.264 47.637C174.353 45.687 175.327 42.4836 174.353 39.5586C173.796 37.6087 172.403 36.0766 170.871 35.1016C170.593 34.9623 170.175 34.9623 169.757 35.2409C169.479 35.5195 169.339 35.9373 169.479 36.2159L170.593 39.9765L167.529 44.0157L162.655 42.4836L161.541 38.7229C161.402 38.3051 161.123 38.0265 160.705 38.0265C160.427 37.748 160.009 37.8873 159.87 38.3051ZM172.96 60.7295C173.796 60.4509 174.492 60.8688 174.77 61.7045C175.049 62.5401 174.631 63.2366 173.796 63.5151C172.96 63.7937 172.264 63.3758 171.985 62.5401C171.846 61.8437 172.264 61.008 172.96 60.7295Z" fill="#C4C4C4"/>
<path d="M14.3435 123.868C15.3183 125.54 16.8502 126.793 18.7998 127.35C21.7243 128.186 24.788 127.211 26.7376 125.122L41.4991 129.44C42.3346 129.718 43.3095 129.579 44.145 129.161C44.9806 128.743 45.5376 127.907 45.8161 127.072C46.3732 125.261 45.2591 123.311 43.4487 122.754L28.6872 118.436C28.2695 115.511 26.1806 113.004 23.1169 112.169C21.1672 111.611 19.2176 111.751 17.4072 112.586C17.1287 112.726 16.8502 113.144 16.8502 113.561C16.8502 113.979 17.1287 114.258 17.5465 114.397L21.3065 115.511L22.9776 120.386L18.9391 123.59L15.3183 122.475C14.9006 122.336 14.4828 122.475 14.3435 122.754C14.065 123.033 14.065 123.45 14.3435 123.868ZM40.2458 125.54C40.5243 124.704 41.3598 124.286 42.0561 124.565C42.8917 124.843 43.3095 125.679 43.0309 126.375C42.7524 127.211 41.9169 127.629 41.2206 127.35C40.5243 127.072 39.9672 126.236 40.2458 125.54Z" fill="#C4C4C4"/>
<path d="M161.541 122.754C161.262 122.475 160.844 122.336 160.566 122.475L156.806 123.59L152.767 120.386L154.439 115.511L158.199 114.397C158.616 114.258 158.895 113.979 158.895 113.561C158.895 113.144 158.756 112.865 158.338 112.586C156.667 111.751 154.578 111.472 152.628 112.169C149.564 113.004 147.615 115.511 147.058 118.436L132.296 122.754C130.486 123.311 129.372 125.261 129.929 127.072C130.207 127.907 130.764 128.743 131.6 129.161C132.436 129.579 133.41 129.718 134.246 129.44L149.007 125.122C150.957 127.211 154.021 128.186 156.945 127.35C158.895 126.793 160.427 125.54 161.402 123.868C161.68 123.45 161.68 123.033 161.541 122.754ZM134.524 127.35C133.689 127.629 132.993 127.072 132.714 126.375C132.436 125.54 132.993 124.843 133.689 124.565C134.524 124.286 135.221 124.843 135.499 125.54C135.778 126.236 135.36 127.072 134.524 127.35Z" fill="#C4C4C4"/>
</g>
<defs>
<clipPath id="clip0">
<rect width="177.277" height="128" fill="white" transform="translate(0 0.977783)"/>
</clipPath>
</defs>
</svg>
